<svg xmlns="http://www.w3.org/2000/svg" width="1860" height="1080" viewBox="0 0 1860 1080"><defs><marker id="arrow" markerWidth="10" markerHeight="10" refX="9" refY="3" orient="auto"><path d="M0,0 L0,6 L9,3 z" fill="#36566F"/></marker></defs><rect width="1860" height="1080" fill="#FFFFFF"/><text x="930" y="77" text-anchor="middle" font-family="Microsoft JhengHei, sans-serif" font-size="20" font-weight="bold" fill="#17324D">工程部署架構（v3.10）</text><rect x="610" y="320" width="1210" height="700" rx="22" fill="#FFF5CC" fill-opacity="0.2" stroke="#C9A227" stroke-width="2" stroke-dasharray="8 6"/><text x="1215" y="355" text-anchor="middle" font-family="Microsoft JhengHei, sans-serif" font-size="20" font-weight="bold" fill="#7A6517">DGX Spark／GB10 部署主機</text><path d="M310,225.0 L385,225.0" stroke="#36566F" stroke-width="2" fill="none" marker-end="url(#arrow)"/><rect x="301.5" y="207.0" width="92" height="30" fill="#FFFFFF"/><text x="347.5" y="230.0" text-anchor="middle" font-family="Microsoft JhengHei, sans-serif" font-size="20" fill="#36566F">觸發</text><path d="M665,225.0 L740,225.0" stroke="#36566F" stroke-width="2" fill="none" marker-end="url(#arrow)"/><rect x="642.5" y="207.0" width="120" height="30" fill="#FFFFFF"/><text x="702.5" y="230.0" text-anchor="middle" font-family="Microsoft JhengHei, sans-serif" font-size="20" fill="#36566F">HTTPS</text><path d="M865.0,285 L865,335 L830,335 L830.0,390" stroke="#36566F" stroke-width="2" fill="none" marker-end="url(#arrow)"/><rect x="698.0" y="344.5" width="264" height="30" fill="#FFFFFF"/><text x="830.0" y="367.5" text-anchor="middle" font-family="Microsoft JhengHei, sans-serif" font-size="20" fill="#36566F">submit／poll</text><path d="M980,450.0 L1080,450.0" stroke="#36566F" stroke-width="2" fill="none" marker-end="url(#arrow)"/><rect x="984.0" y="432.0" width="92" height="30" fill="#FFFFFF"/><text x="1030.0" y="455.0" text-anchor="middle" font-family="Microsoft JhengHei, sans-serif" font-size="20" fill="#36566F">排程</text><path d="M1380,450.0 L1480,450.0" stroke="#36566F" stroke-width="2" fill="none" marker-end="url(#arrow)"/><rect x="1384.0" y="432.0" width="92" height="30" fill="#FFFFFF"/><text x="1430.0" y="455.0" text-anchor="middle" font-family="Microsoft JhengHei, sans-serif" font-size="20" fill="#36566F">寫出</text><path d="M1230.0,510 L1230.0,650" stroke="#36566F" stroke-width="2" fill="none" marker-end="url(#arrow)"/><rect x="1184.0" y="562.0" width="92" height="30" fill="#FFFFFF"/><text x="1230.0" y="585.0" text-anchor="middle" font-family="Microsoft JhengHei, sans-serif" font-size="20" fill="#36566F">推論</text><path d="M960,710.0 L1080,710.0" stroke="#36566F" stroke-width="2" fill="none" marker-end="url(#arrow)"/><rect x="974.0" y="692.0" width="92" height="30" fill="#FFFFFF"/><text x="1020.0" y="715.0" text-anchor="middle" font-family="Microsoft JhengHei, sans-serif" font-size="20" fill="#36566F">掛載</text><path d="M1615.0,650 L1615,570 L1230,570 L1230.0,510" stroke="#36566F" stroke-width="2" fill="none" marker-end="url(#arrow)"/><rect x="1374.5" y="552.0" width="96" height="30" fill="#FFFFFF"/><text x="1422.5" y="575.0" text-anchor="middle" font-family="Microsoft JhengHei, sans-serif" font-size="20" fill="#36566F">相關規則</text><path d="M1615.0,865 L1615.0,770" stroke="#36566F" stroke-width="2" fill="none" marker-end="url(#arrow)"/><rect x="1567.0" y="799.5" width="96" height="30" fill="#FFFFFF"/><text x="1615.0" y="822.5" text-anchor="middle" font-family="Microsoft JhengHei, sans-serif" font-size="20" fill="#36566F">建立索引</text><rect x="60" y="165" width="250" height="120" rx="16" fill="#E8F1FB" stroke="#36566F" stroke-width="2"/><text text-anchor="middle" font-family="Microsoft JhengHei, sans-serif" font-size="20" font-weight="bold" fill="#17324D"><tspan x="185.0" y="218.0">GitHub Pull</tspan><tspan x="185.0" y="246.0">Request</tspan></text><rect x="385" y="165" width="280" height="120" rx="16" fill="#E8F1FB" stroke="#36566F" stroke-width="2"/><text text-anchor="middle" font-family="Microsoft JhengHei, sans-serif" font-size="20" font-weight="bold" fill="#17324D"><tspan x="525.0" y="218.0">GitHub Actions</tspan><tspan x="525.0" y="246.0">／CLI</tspan></text><rect x="740" y="165" width="250" height="120" rx="16" fill="#FFF0E1" stroke="#36566F" stroke-width="2"/><text text-anchor="middle" font-family="Microsoft JhengHei, sans-serif" font-size="20" font-weight="bold" fill="#17324D"><tspan x="865.0" y="218.0">TLS</tspan><tspan x="865.0" y="246.0">反向代理</tspan></text><rect x="680" y="390" width="300" height="120" rx="16" fill="#FFF0E1" stroke="#36566F" stroke-width="2"/><text text-anchor="middle" font-family="Microsoft JhengHei, sans-serif" font-size="20" font-weight="bold" fill="#17324D"><tspan x="830.0" y="443.0">FastAPI</tspan><tspan x="830.0" y="471.0">非同步工作 API</tspan></text><rect x="1080" y="390" width="300" height="120" rx="16" fill="#E7F6F1" stroke="#36566F" stroke-width="2"/><text text-anchor="middle" font-family="Microsoft JhengHei, sans-serif" font-size="20" font-weight="bold" fill="#17324D"><tspan x="1230.0" y="443.0">多階段 CoT</tspan><tspan x="1230.0" y="471.0">審查管線</tspan></text><rect x="1480" y="390" width="300" height="120" rx="16" fill="#E7F6F1" stroke="#36566F" stroke-width="2"/><text text-anchor="middle" font-family="Microsoft JhengHei, sans-serif" font-size="20" font-weight="bold" fill="#17324D"><tspan x="1630.0" y="443.0">步驟產物與</tspan><tspan x="1630.0" y="471.0">逐行 findings</tspan></text><rect x="680" y="650" width="280" height="120" rx="16" fill="#F1EAFE" stroke="#36566F" stroke-width="2"/><text text-anchor="middle" font-family="Microsoft JhengHei, sans-serif" font-size="20" font-weight="bold" fill="#17324D"><tspan x="820.0" y="703.0">可選 LoRA</tspan><tspan x="820.0" y="731.0">適配器</tspan></text><rect x="1080" y="650" width="300" height="120" rx="16" fill="#F1EAFE" stroke="#36566F" stroke-width="2"/><text text-anchor="middle" font-family="Microsoft JhengHei, sans-serif" font-size="20" font-weight="bold" fill="#17324D"><tspan x="1230.0" y="703.0">Gemma-4-31B-it</tspan><tspan x="1230.0" y="731.0">推論模型</tspan></text><rect x="1450" y="650" width="330" height="120" rx="16" fill="#FCE8F1" stroke="#36566F" stroke-width="2"/><text text-anchor="middle" font-family="Microsoft JhengHei, sans-serif" font-size="20" font-weight="bold" fill="#17324D"><tspan x="1615.0" y="703.0">EmbeddingGemma</tspan><tspan x="1615.0" y="731.0">＋FAISS 檢索</tspan></text><rect x="1450" y="865" width="330" height="120" rx="16" fill="#FCE8F1" stroke="#36566F" stroke-width="2"/><text text-anchor="middle" font-family="Microsoft JhengHei, sans-serif" font-size="20" font-weight="bold" fill="#17324D"><tspan x="1615.0" y="918.0">版本化</tspan><tspan x="1615.0" y="946.0">規則語料</tspan></text></svg>