<svg xmlns="http://www.w3.org/2000/svg" width="1600" height="900" viewBox="0 0 1600 900"><defs><marker id="arrow" markerWidth="10" markerHeight="10" refX="9" refY="3" orient="auto"><path d="M0,0 L0,6 L9,3 z" fill="#36566F"/></marker></defs><rect width="1600" height="900" fill="#FFFFFF"/><text x="800" y="65" text-anchor="middle" font-family="Microsoft JhengHei, sans-serif" font-size="20" font-weight="bold" fill="#17324D">工程部署架構（v3.9）</text><rect x="300" y="300" width="1260" height="450" rx="22" fill="#FFF5CC" fill-opacity="0.2" stroke="#C9A227" stroke-width="2" stroke-dasharray="8 6"/><text x="325" y="330" font-family="Microsoft JhengHei, sans-serif" font-size="20" font-weight="bold" fill="#7A6517">DGX Spark／GB10 部署主機</text><path d="M300,225.0 L360,225.0" stroke="#36566F" stroke-width="2" fill="none" marker-end="url(#arrow)"/><rect x="275.0" y="209.0" width="110" height="26" fill="#FFFFFF"/><text x="330.0" y="228.0" text-anchor="middle" font-family="Microsoft JhengHei, sans-serif" font-size="20" fill="#36566F">觸發</text><path d="M600,225.0 L660,225.0" stroke="#36566F" stroke-width="2" fill="none" marker-end="url(#arrow)"/><rect x="575.0" y="209.0" width="110" height="26" fill="#FFFFFF"/><text x="630.0" y="228.0" text-anchor="middle" font-family="Microsoft JhengHei, sans-serif" font-size="20" fill="#36566F">HTTPS</text><path d="M870,225.0 L940,225.0" stroke="#36566F" stroke-width="2" fill="none" marker-end="url(#arrow)"/><rect x="850.0" y="209.0" width="110" height="26" fill="#FFFFFF"/><text x="905.0" y="228.0" text-anchor="middle" font-family="Microsoft JhengHei, sans-serif" font-size="20" fill="#36566F">submit／poll</text><path d="M1080.0,270 L1080.0,370" stroke="#36566F" stroke-width="2" fill="none" marker-end="url(#arrow)"/><rect x="1025.0" y="304.0" width="110" height="26" fill="#FFFFFF"/><text x="1080.0" y="323.0" text-anchor="middle" font-family="Microsoft JhengHei, sans-serif" font-size="20" fill="#36566F">排程</text><path d="M940,415.0 L850,415.0" stroke="#36566F" stroke-width="2" fill="none" marker-end="url(#arrow)"/><rect x="840.0" y="399.0" width="110" height="26" fill="#FFFFFF"/><text x="895.0" y="418.0" text-anchor="middle" font-family="Microsoft JhengHei, sans-serif" font-size="20" fill="#36566F">推論</text><path d="M570,415.0 L620,415.0" stroke="#36566F" stroke-width="2" fill="none" marker-end="url(#arrow)"/><rect x="540.0" y="399.0" width="110" height="26" fill="#FFFFFF"/><text x="595.0" y="418.0" text-anchor="middle" font-family="Microsoft JhengHei, sans-serif" font-size="20" fill="#36566F">掛載</text><path d="M1270,415.0 L1220,415.0" stroke="#36566F" stroke-width="2" fill="none" marker-end="url(#arrow)"/><rect x="1190.0" y="399.0" width="110" height="26" fill="#FFFFFF"/><text x="1245.0" y="418.0" text-anchor="middle" font-family="Microsoft JhengHei, sans-serif" font-size="20" fill="#36566F">相關規則</text><path d="M1405.0,570 L1405.0,460" stroke="#36566F" stroke-width="2" fill="none" marker-end="url(#arrow)"/><rect x="1350.0" y="499.0" width="110" height="26" fill="#FFFFFF"/><text x="1405.0" y="518.0" text-anchor="middle" font-family="Microsoft JhengHei, sans-serif" font-size="20" fill="#36566F">建立索引</text><path d="M1080.0,460 L1070.0,610" stroke="#36566F" stroke-width="2" fill="none" marker-end="url(#arrow)"/><rect x="1020.0" y="519.0" width="110" height="26" fill="#FFFFFF"/><text x="1075.0" y="538.0" text-anchor="middle" font-family="Microsoft JhengHei, sans-serif" font-size="20" fill="#36566F">寫出</text><rect x="70" y="180" width="230" height="90" rx="16" fill="#E8F1FB" stroke="#36566F" stroke-width="2"/><text x="185.0" y="232.0" text-anchor="middle" font-family="Microsoft JhengHei, sans-serif" font-size="20" font-weight="bold" fill="#17324D">GitHub Pull Request</text><rect x="360" y="180" width="240" height="90" rx="16" fill="#E8F1FB" stroke="#36566F" stroke-width="2"/><text x="480.0" y="232.0" text-anchor="middle" font-family="Microsoft JhengHei, sans-serif" font-size="20" font-weight="bold" fill="#17324D">GitHub Actions／CLI</text><rect x="660" y="180" width="210" height="90" rx="16" fill="#FFF0E1" stroke="#36566F" stroke-width="2"/><text x="765.0" y="232.0" text-anchor="middle" font-family="Microsoft JhengHei, sans-serif" font-size="20" font-weight="bold" fill="#17324D">TLS 反向代理</text><rect x="940" y="180" width="280" height="90" rx="16" fill="#FFF0E1" stroke="#36566F" stroke-width="2"/><text x="1080.0" y="232.0" text-anchor="middle" font-family="Microsoft JhengHei, sans-serif" font-size="20" font-weight="bold" fill="#17324D">FastAPI 非同步工作 API</text><rect x="940" y="370" width="280" height="90" rx="16" fill="#E7F6F1" stroke="#36566F" stroke-width="2"/><text x="1080.0" y="422.0" text-anchor="middle" font-family="Microsoft JhengHei, sans-serif" font-size="20" font-weight="bold" fill="#17324D">多階段 CoT 管線</text><rect x="620" y="370" width="230" height="90" rx="16" fill="#F1EAFE" stroke="#36566F" stroke-width="2"/><text x="735.0" y="422.0" text-anchor="middle" font-family="Microsoft JhengHei, sans-serif" font-size="20" font-weight="bold" fill="#17324D">Gemma-4-31B-it</text><rect x="350" y="370" width="220" height="90" rx="16" fill="#F1EAFE" stroke="#36566F" stroke-width="2"/><text x="460.0" y="422.0" text-anchor="middle" font-family="Microsoft JhengHei, sans-serif" font-size="20" font-weight="bold" fill="#17324D">可選 LoRA 適配器</text><rect x="1270" y="370" width="270" height="90" rx="16" fill="#FCE8F1" stroke="#36566F" stroke-width="2"/><text x="1405.0" y="422.0" text-anchor="middle" font-family="Microsoft JhengHei, sans-serif" font-size="20" font-weight="bold" fill="#17324D">EmbeddingGemma＋FAISS</text><rect x="1270" y="570" width="270" height="90" rx="16" fill="#FCE8F1" stroke="#36566F" stroke-width="2"/><text x="1405.0" y="622.0" text-anchor="middle" font-family="Microsoft JhengHei, sans-serif" font-size="20" font-weight="bold" fill="#17324D">版本化規則語料</text><rect x="900" y="610" width="340" height="90" rx="16" fill="#E7F6F1" stroke="#36566F" stroke-width="2"/><text x="1070.0" y="662.0" text-anchor="middle" font-family="Microsoft JhengHei, sans-serif" font-size="20" font-weight="bold" fill="#17324D">步驟產物與逐行 findings</text></svg>